<?xml version="1.0" encoding="UTF-8" standalone="no"?>
<svg width="540px" height="540px" viewBox="0 0 540 540" version="1.1" xmlns="http://www.w3.org/2000/svg" xmlns:xlink="http://www.w3.org/1999/xlink" xmlns:sketch="http://www.bohemiancoding.com/sketch/ns">
    <!-- Generator: Sketch 3.1.1 (8761) - http://www.bohemiancoding.com/sketch -->
    <title>ZC Icon</title>
    <desc>Created with Sketch.</desc>
    <defs></defs>
    <g id="Page-1" stroke="none" stroke-width="1" fill="none" fill-rule="evenodd" sketch:type="MSPage">
        <g id="ZC-Icon" sketch:type="MSArtboardGroup" fill="#4A4A4A">
            <path d="M505.048051,446.750011 C522.617182,411.522597 532.5,371.790421 532.5,329.749989 C532.5,184.775242 414.974747,67.249989 270,67.249989 C125.025253,67.249989 7.5,184.775242 7.5,329.749989 C7.5,371.790421 17.3828184,411.522597 34.9519493,446.750011 L505.048062,446.749989 L505.048051,446.750011 Z M315.496456,329.672985 C315.498816,329.865036 315.5,330.057373 315.5,330.249989 C315.5,355.378945 295.352814,375.749989 270.5,375.749989 C245.647186,375.749989 225.5,355.378945 225.5,330.249989 C225.5,305.121033 245.647186,284.749989 270.5,284.749989 C281.811538,284.749989 292.148289,288.969921 300.05436,295.937716 L489.393299,232.826661 L315.496456,329.672983 L315.496456,329.672985 Z M213.890625,125.742177 C57.6464843,166.929677 57.4375,329.749989 57.4375,329.749989 L124.458984,329.749995 C124.458984,329.749995 122.355469,223.398433 222.177734,189.710929 C322,156.023425 384.861328,233.628898 384.861328,233.628898 L447,211.749989 C447,211.749989 370.134766,84.5546771 213.890625,125.742177 Z" id="dial" sketch:type="MSShapeGroup"></path>
        </g>
    </g>
</svg>