<?xml version="1.0" encoding="UTF-8" standalone="no"?>
<svg width="540px" height="540px" viewBox="0 0 540 540" version="1.1" xmlns="http://www.w3.org/2000/svg" xmlns:xlink="http://www.w3.org/1999/xlink" xmlns:sketch="http://www.bohemiancoding.com/sketch/ns">
    <!-- Generator: Sketch 3.1.1 (8761) - http://www.bohemiancoding.com/sketch -->
    <title>ZC Icon</title>
    <desc>Created with Sketch.</desc>
    <defs></defs>
    <g id="Page-1" stroke="none" stroke-width="1" fill="none" fill-rule="evenodd" sketch:type="MSPage">
        <g id="ZC-Icon" sketch:type="MSArtboardGroup" fill="#4A4A4A">
            <path d="M505.048051,398.500022 C522.617182,363.272608 532.5,323.540432 532.5,281.5 C532.5,136.525253 414.974747,19 270,19 C125.025253,19 7.5,136.525253 7.5,281.5 C7.5,323.540432 17.3828184,363.272608 34.9519493,398.500022 L505.048062,398.5 L505.048051,398.500022 Z M315.496456,281.422996 C315.498816,281.615047 315.5,281.807384 315.5,282 C315.5,307.128956 295.352814,327.5 270.5,327.5 C245.647186,327.5 225.5,307.128956 225.5,282 C225.5,256.871044 245.647186,236.5 270.5,236.5 C281.811538,236.5 292.148289,240.719932 300.05436,247.687727 L489.393299,184.576672 L315.496456,281.422994 L315.496456,281.422996 Z M213.890625,77.4921879 C57.6464843,118.679688 57.4375,281.5 57.4375,281.5 L124.458984,281.500006 C124.458984,281.500006 122.355469,175.148444 222.177734,141.46094 C322,107.773436 384.861328,185.378909 384.861328,185.378909 L447,163.5 C447,163.5 370.134766,36.3046881 213.890625,77.4921879 Z" id="dial" sketch:type="MSShapeGroup"></path>
            <g id="logo" sketch:type="MSLayerGroup" transform="translate(7.000000, 415.000000)">
                <ellipse id="Oval-17" sketch:type="MSShapeGroup" transform="translate(250.077467, 45.125909) rotate(55.000000) translate(-250.077467, -45.125909) " cx="250.077467" cy="45.1259092" rx="5.06143468" ry="5.08093654"></ellipse>
                <polygon id="Triangle-1" sketch:type="MSShapeGroup" transform="translate(263.088587, 35.834853) rotate(55.000000) translate(-263.088587, -35.834853) " points="263.276973 20.1977532 265.125623 51.4719532 261.05155 51.4719532 "></polygon>
                <path d="M188.374691,90.1588211 L188.374691,94.2969263 L214.168025,94.2969263 L214.168025,82.0008421 L233.601358,82.0008421 L233.601358,94.2969263 L233.601358,95.2427789 C233.601358,97.6074223 232.757292,99.6370442 231.069136,101.331705 C229.380979,103.026366 227.359148,103.873684 225.00358,103.873684 L215.816914,103.873684 L214.168025,103.873684 L188.374691,103.873684 L186.725802,103.873684 L177.30358,103.873684 C175.026532,103.873684 173.063588,103.046071 171.414691,101.390821 C169.765794,99.7355707 168.941358,97.7650641 168.941358,95.4792421 L168.941358,94.2969263 L168.941358,90.1588211 L168.941358,42.6297263 L168.941358,41.4474105 C168.941358,39.0827671 169.765794,37.0728504 171.414691,35.4176 C173.063588,33.7623496 175.026532,32.9347368 177.30358,32.9347368 L186.725802,32.9347368 L188.374691,32.9347368 L214.168025,32.9347368 L215.816914,32.9347368 L225.00358,32.9347368 C227.359148,32.9347368 229.380979,33.7820547 231.069136,35.4767158 C232.757292,37.1713769 233.601358,39.2009987 233.601358,41.5656421 L233.601358,42.6297263 L233.601358,54.8075789 L214.168025,54.8075789 L214.168025,42.6297263 L188.374691,42.6297263 L188.374691,90.1588211 Z M287.896914,94.2969263 L287.896914,79.3997474 L262.10358,79.3997474 L262.10358,94.2969263 L287.896914,94.2969263 Z M242.670247,78.4538947 C242.670247,76.0104299 243.514313,73.9413979 245.202469,72.2467368 C246.890626,70.5520757 248.912457,69.7047579 251.268025,69.7047579 L287.896914,69.7047579 L287.896914,54.8075789 L265.863454,54.8075786 C265.863454,54.8075786 279.239704,45.2308211 281.595271,45.2308211 L287.896914,45.2308211 L290.252469,45.2308211 L298.732469,45.2308211 C301.088036,45.2308211 303.109868,46.0781389 304.798025,47.7728 C306.486181,49.4674611 307.330247,51.4970829 307.330247,53.8617263 L307.330247,54.8075789 L307.330247,94.2969263 L307.330247,95.2427789 C307.330247,97.6074223 306.486181,99.6370442 304.798025,101.331705 C303.109868,103.026366 301.088036,103.873684 298.732469,103.873684 L290.252469,103.873684 L287.896914,103.873684 L262.10358,103.873684 L259.748025,103.873684 L251.268025,103.873684 C248.912457,103.873684 246.890626,103.026366 245.202469,101.331705 C243.514313,99.6370442 242.670247,97.6074223 242.670247,95.2427789 L242.670247,94.2969263 L242.670247,79.3997474 L242.670247,78.4538947 Z M361.390247,82.0008421 L380.82358,82.0008421 L380.82358,94.2969263 L380.82358,95.2427789 C380.82358,97.6074223 379.979515,99.6370442 378.291358,101.331705 C376.603201,103.026366 374.58137,103.873684 372.225802,103.873684 L363.981358,103.873684 L361.390247,103.873684 L335.596914,103.873684 L333.005802,103.873684 L324.761358,103.873684 C322.405791,103.873684 320.383959,103.026366 318.695802,101.331705 C317.007646,99.6370442 316.16358,97.6074223 316.16358,95.2427789 L316.16358,94.2969263 L316.16358,54.8075789 L316.16358,53.8617263 C316.16358,51.4970829 317.007646,49.4674611 318.695802,47.7728 C320.383959,46.0781389 322.405791,45.2308211 324.761358,45.2308211 L331.945802,45.2308211 L335.596914,45.2308211 L361.390247,45.2308211 L365.041358,45.2308211 L372.225802,45.2308211 C374.58137,45.2308211 376.603201,46.0781389 378.291358,47.7728 C379.979515,49.4674611 380.82358,51.4970829 380.82358,53.8617263 L380.82358,54.8075789 L380.82358,67.1036632 L361.390247,67.1036632 L361.390247,54.8075789 L335.596914,54.8075789 L335.596914,94.2969263 L361.390247,94.2969263 L361.390247,82.0008421 Z M434.412469,45.2308211 L437.592469,45.2308211 L445.248025,45.2308211 C447.603592,45.2308211 449.625424,46.0781389 451.31358,47.7728 C453.001737,49.4674611 453.845802,51.4970829 453.845802,53.8617263 L453.845802,54.8075789 L453.845802,64.7390316 L453.845802,103.873684 L434.412469,103.873684 L434.412469,64.7390316 L434.412469,54.8075789 L408.619136,54.8075789 L408.619136,103.873684 L389.185802,103.873684 L389.185802,32.9347368 L408.619136,32.9347368 L408.619136,45.2308211 L434.412469,45.2308211 Z M482.58358,54.8075789 L482.58358,69.7047579 L508.376914,69.7047579 L508.376914,54.8075789 L482.58358,54.8075789 Z M527.810247,70.6506105 C527.810247,73.0940754 526.966181,75.1631073 525.278025,76.8577684 C523.589868,78.5524295 521.568036,79.3997474 519.212469,79.3997474 L482.58358,79.3997474 L482.58358,94.2969263 L508.376914,94.2969263 L510.732469,94.2969263 L527.810247,94.2969263 L527.810247,95.2427789 C527.810247,97.6074223 526.966181,99.6370442 525.278025,101.331705 C523.589868,103.026366 521.568036,103.873684 519.212469,103.873684 L510.732469,103.873684 L508.376914,103.873684 L482.58358,103.873684 L480.228025,103.873684 L471.748025,103.873684 C469.392457,103.873684 467.370626,103.026366 465.682469,101.331705 C463.994313,99.6370442 463.150247,97.6074223 463.150247,95.2427789 L463.150247,94.2969263 L463.150247,54.8075789 L463.150247,53.8617263 C463.150247,51.4970829 463.994313,49.4674611 465.682469,47.7728 C467.370626,46.0781389 469.392457,45.2308211 471.748025,45.2308211 L480.228025,45.2308211 L482.58358,45.2308211 L508.376914,45.2308211 L510.732469,45.2308211 L519.212469,45.2308211 C521.568036,45.2308211 523.589868,46.0781389 525.278025,47.7728 C526.966181,49.4674611 527.810247,51.4970829 527.810247,53.8617263 L527.810247,54.8075789 L527.810247,69.7047579 L527.810247,70.6506105 Z" id="Cache" sketch:type="MSShapeGroup"></path>
                <path d="M235.081826,5.00604596 C235.081826,5.00604596 255.807075,4.77604446 267.668519,22.7171162 C282.218972,44.7254606 270.348004,63.8342493 270.348004,63.8342493 C270.348004,63.8342493 284.664737,42.3524023 269.300999,21.7966698 C253.93726,1.2409373 235.081826,5.00604596 235.081826,5.00604596 Z" id="Rectangle-36" sketch:type="MSShapeGroup" transform="translate(255.746792, 34.284821) rotate(309.000000) translate(-255.746792, -34.284821) "></path>
                <path d="M2.68565432,41.1836842 L2.68565432,44.4851842 L38.8956543,44.4851842 L38.8956543,44.6981842 C36.6591543,47.3606842 34.7421543,49.9166842 32.7186543,52.4726842 L0.023154321,95.8181842 L0.023154321,98.2676842 L43.3686543,98.2676842 L43.3686543,94.9661842 L4.81565432,94.9661842 L4.81565432,94.7531842 C6.83915432,92.3036842 8.75615432,89.8541842 10.6731543,87.2981842 L43.3686543,44.0591842 L43.3686543,41.1836842 L2.68565432,41.1836842 Z M92.3586543,92.7296842 C89.2701543,94.2206842 85.0101543,96.3506842 76.4901543,96.3506842 C62.1126543,96.3506842 53.6991543,86.1266842 53.8056543,68.2346842 L96.7251543,68.2346842 C96.8316543,67.7021842 96.8316543,67.1696842 96.8316543,66.4241842 C96.8316543,54.7091842 92.0391543,39.9056842 75.1056543,39.9056842 C61.1541543,39.9056842 49.9716543,50.9816842 49.9716543,70.7906842 C49.9716543,87.4046842 59.9826543,99.4391842 75.9576543,99.4391842 C86.2881543,99.4391842 92.0391543,96.5636842 93.6366543,95.6051842 L92.3586543,92.7296842 Z M54.2316543,64.9331842 C55.2966543,55.4546842 61.3671543,42.8876842 74.6796543,42.8876842 C90.0156543,42.8876842 92.7846543,58.5431842 92.6781543,64.9331842 L54.2316543,64.9331842 Z M155.513154,63.9746842 C155.513154,41.9291842 140.283654,39.9056842 135.810654,39.9056842 C127.077654,39.9056842 119.835654,44.4851842 115.788654,51.8336842 L115.575654,51.8336842 L115.256154,41.1836842 L111.635154,41.1836842 C111.954654,45.5501842 112.061154,49.1711842 112.061154,54.0701842 L112.061154,98.2676842 L115.788654,98.2676842 L115.788654,62.5901842 C115.788654,53.7506842 123.563154,43.1006842 134.958654,43.1006842 C147.525654,43.1006842 151.785654,53.3246842 151.785654,64.2941842 L151.785654,98.2676842 L155.513154,98.2676842 L155.513154,63.9746842 Z" id="zen" sketch:type="MSShapeGroup"></path>
            </g>
        </g>
    </g>
</svg>