<svg style="width:1em; height:1em; vertical-align:middle;" viewBox="0 0 540 540" version="1.1" xmlns="http://www.w3.org/2000/svg">
	<g fill="currentColor" fill-rule="evenodd">
		<path d="M401.504121,406.75213 L401.504121,404.689955 L411.032258,404.689955 L411.032258,391.132577 L374.933786,391.132577 L374.933786,404.689955 L384.461924,404.689955 L384.461924,409.430194 C383.410756,409.256979 382.360535,409.426875 381.479937,410.24554 C381.229994,410.478678 381.482076,410.939689 381.80542,410.898949 C382.284607,410.838 382.82558,410.745049 383.297493,410.899546 C383.619957,411.00503 384.332095,411.593476 383.926393,411.999866 C383.518342,412.409487 382.796999,412.138778 382.322982,412.008999 C381.748301,411.85159 381.174755,411.693791 380.601039,411.536167 C378.304976,410.906886 376.008697,410.276642 373.713769,409.646971 C373.252762,409.521133 373.097855,410.176037 373.462724,410.39127 C375.29254,411.476696 377.128351,412.568359 379.009208,413.571104 L372.222528,413.711078 L372.222528,410.422789 L358.511306,410.422789 L358.511306,404.689955 L372.454921,404.689955 L372.454921,391.132577 L342.01136,391.132577 L342.01136,414.334178 L336.588843,414.446016 L336.588843,391.132577 L322.955085,391.132577 L309.553721,410.965084 L296.074893,391.132577 L282.441135,391.132577 L282.441135,415.562803 L278.148664,415.651334 C277.996078,412.432374 277.296634,409.372547 276.050311,406.471782 C274.630121,403.166347 272.693527,400.287047 270.240472,397.833795 C267.787416,395.380543 264.908346,393.443794 261.603176,392.02349 C258.298006,390.603186 254.786316,389.893045 251.068,389.893045 C247.349684,389.893045 243.837994,390.603186 240.532824,392.02349 C237.227654,393.443794 234.348584,395.380543 231.895528,397.833795 C229.442473,400.287047 227.505879,403.166347 226.085688,406.471782 C224.69593,409.706388 223.986171,413.138774 223.956392,416.76904 L193.131557,417.404797 C193.126873,417.273179 193.12453,417.140847 193.12453,417.007802 C193.12453,415.510027 193.408564,414.102656 193.97664,412.785647 C194.544716,411.468638 195.332264,410.3195 196.339308,409.338199 C197.346352,408.356898 198.521219,407.582199 199.863944,407.014077 C201.20667,406.445955 202.678481,406.161899 204.279423,406.161899 C205.828721,406.161899 207.210158,406.355574 208.423775,406.742929 C209.637392,407.130285 210.683153,407.530546 211.561089,407.943726 C212.542311,408.511847 213.446055,409.105784 214.272347,409.725553 L222.406123,395.393467 C221.011755,394.412166 219.359195,393.50835 217.448393,392.681991 C215.795808,391.958928 213.820482,391.313345 211.522356,390.745223 C209.224231,390.177101 206.603373,389.893045 203.659707,389.893045 C199.94139,389.893045 196.4297,390.525716 193.12453,391.791078 C189.81936,393.05644 186.92738,394.876984 184.448503,397.252765 C181.969625,399.628546 180.00721,402.482022 178.561198,405.813281 C177.115186,409.144539 176.392191,412.876008 176.392191,417.007802 C176.392191,417.25649 176.394848,417.503849 176.400162,417.74988 L174.245658,417.794315 C174.245658,417.794315 175.087999,417.786868 176.400807,417.779148 C176.484553,421.507211 177.178857,424.929925 178.483734,428.047381 C179.878102,431.378639 181.814696,434.232116 184.293574,436.607897 C186.772451,438.983678 189.716074,440.830045 193.12453,442.147054 C196.532987,443.464063 200.251247,444.122558 204.279423,444.122558 C207.274733,444.122558 209.934322,443.812678 212.25827,443.192909 C214.582217,442.57314 216.570454,441.901734 218.223038,441.17867 C220.13384,440.300664 221.7864,439.293555 223.180769,438.157312 L215.046993,423.825226 C214.272344,424.599937 213.3686,425.271344 212.335734,425.839465 C211.457798,426.355939 210.373306,426.820759 209.082224,427.233938 C207.791142,427.647118 206.31933,427.853704 204.666745,427.853704 C203.01416,427.853704 201.490707,427.569648 200.096338,427.001526 C198.70197,426.433404 197.488371,425.658705 196.455505,424.677404 C195.422639,423.696103 194.60927,422.546965 194.015372,421.229956 C193.537316,420.169835 193.251668,419.051164 193.158423,417.873922 C202.575607,418.006749 212.981005,418.152715 223.984664,418.306519 C224.131578,421.546638 224.831915,424.625714 226.085688,427.543821 C227.505879,430.849256 229.442473,433.728556 231.895528,436.181808 C234.348584,438.63506 237.227654,440.571809 240.532824,441.992113 C243.837994,443.412417 247.349684,444.122558 251.068,444.122558 C254.786316,444.122558 258.298006,443.412417 261.603176,441.992113 C264.908346,440.571809 267.787416,438.63506 270.240472,436.181808 C272.693527,433.728556 274.630121,430.849256 276.050311,427.543821 C277.206549,424.852725 277.892108,422.024731 278.107001,419.059781 C279.55205,419.079825 280.996993,419.099864 282.441136,419.119887 L282.441135,442.805556 L298.941081,442.805556 L298.941081,424.21258 L309.553721,439.706726 L320.088898,424.21258 L320.088898,442.805556 L336.588843,442.805556 L336.588843,419.868975 C338.416104,419.894204 340.224242,419.919164 342.01136,419.94383 L342.01136,442.805556 L372.997173,442.805556 L372.997173,429.248177 L358.511306,429.248177 L358.511306,423.282931 L372.222528,423.282931 L372.222528,420.360422 C376.617944,420.420977 380.715146,420.477399 384.461924,420.528979 L384.461924,442.805556 L401.504121,442.805556 L401.504121,427.1808 C402.358127,427.42905 403.196311,427.730729 404.061295,427.942716 C405.088324,428.194453 406.151251,428.317554 407.209617,428.256853 C411.331163,428.02075 415.241656,425.541494 416.842165,421.670079 C417.87822,419.161429 418.072977,416.269262 417.185038,413.683801 C416.306082,411.127775 414.466184,408.959959 412.109047,407.638944 C409.622399,406.244054 406.94721,405.994134 404.15875,406.359864 C403.290131,406.473521 402.399881,406.628477 401.504121,406.75213 Z M240.3256,418.534575 C240.45433,419.471568 240.704154,420.370024 241.075075,421.229956 C241.643151,422.546965 242.417789,423.696103 243.399011,424.677404 C244.380234,425.658705 245.529279,426.433404 246.846183,427.001526 C248.163087,427.569648 249.570345,427.853704 251.068,427.853704 C252.565655,427.853704 253.972913,427.569648 255.289817,427.001526 C256.606721,426.433404 257.755766,425.658705 258.736989,424.677404 C259.718211,423.696103 260.492848,422.546965 261.060925,421.229956 C261.392306,420.461692 261.627033,419.662678 261.765105,418.832907 C254.524928,418.7323 247.348751,418.632452 240.3256,418.534575 Z M261.867818,415.987124 C261.767104,414.866426 261.49814,413.799273 261.060925,412.785647 C260.492848,411.468638 259.718211,410.3195 258.736989,409.338199 C257.755766,408.356898 256.606721,407.582199 255.289817,407.014077 C253.972913,406.445955 252.565655,406.161899 251.068,406.161899 C249.570345,406.161899 248.163087,406.445955 246.846183,407.014077 C245.529279,407.582199 244.380234,408.356898 243.399011,409.338199 C242.417789,410.3195 241.643151,411.468638 241.075075,412.785647 C240.580207,413.932933 240.300889,415.148792 240.237117,416.433252 L261.867818,415.987124 Z M67.8836769,125.325225 C63.3785388,133.310189 59.2439837,141.637966 55.48,150.308571 C41.8265984,181.760157 35,216.990281 35,256 C35,294.034476 41.5827913,328.776986 54.7485714,360.228571 C67.9143515,391.680157 86.199883,418.62084 109.605714,441.051429 C133.011546,463.482017 160.805553,480.914224 192.988571,493.348571 C225.171589,505.782919 260.27981,512 298.314286,512 C326.596332,512 351.708462,509.074315 373.651429,503.222857 C395.594395,497.371399 414.367541,491.032415 429.971429,484.205714 C448.013424,475.916149 463.617077,466.407673 476.782857,455.68 L411.277787,340.266305 C399.76048,354.619051 385.224044,366.525733 368.49607,374.342377 C341.396806,386.992291 310.001148,389.009386 281.369456,380.400615 C251.15435,371.328779 228.602806,351.955658 210.080563,326.948861 C191.761538,302.232237 175.078697,272.583628 145.520455,259.946196 C143.738128,259.173634 142.937632,257.696826 142.839541,256.181515 C142.61614,254.131916 143.632268,251.987816 145.738744,251.502369 C146.387955,251.295538 147.132567,251.293296 147.943777,251.522394 C155.068176,252.648964 163.778082,254.360162 170.440533,250.852492 C178.300319,246.717233 180.642397,238.858771 174.118159,231.943375 C161.776109,218.859391 146.404209,207.892853 132.695534,196.261293 C128.334219,192.562272 132.722903,186.400053 137.685163,189.046314 C143.887039,192.369236 152.665435,197.279821 159.672611,193.266426 C168.454186,188.232482 161.789047,179.03322 155.865745,174.917083 C144.388451,166.94282 130.658901,164.298373 117.31491,161.115842 C97.2360992,156.321381 73.4416749,146.366565 67.8836763,125.325222 Z M74.4957311,114.271151 C76.3596276,111.329113 78.2781626,108.437616 80.2513365,105.596661 C82.568357,106.969414 84.8859371,108.343172 87.2044555,109.718942 C91.8808205,112.494523 99.579881,116.155557 99.4561432,122.552033 C99.3400684,128.904976 89.182909,127.759423 85.8647941,126.003436 C81.0606202,123.462488 77.6639803,118.522842 74.4957311,114.271151 Z M100.368253,80.4241292 C103.813967,76.6660244 107.380739,73.0198871 111.068571,69.4857143 C134.474403,47.0551259 161.780796,29.8667264 192.988571,17.92 C224.196347,5.9732736 257.35411,0 292.462857,0 C320.257282,0 345.003701,2.68187794 366.702857,8.04571429 C388.402013,13.4095506 407.053255,19.5047278 422.657143,26.3314286 C440.699138,34.1333723 456.302791,42.6666203 469.468571,51.9314286 L399.830224,174.627564 C394.079708,169.248863 387.763154,164.477275 381.108518,160.2818 C369.473485,152.945841 356.849002,147.368594 345.441804,139.636027 C334.161308,131.969582 323.940229,121.004024 321.614595,107.133291 C319.710146,95.8219706 325.366186,83.3799925 336.156049,79.0092465 C339.705983,77.5616702 339.316502,72.1091169 335.794,70.9199494 C322.541882,66.4238913 308.464321,70.6401283 298.475933,80.1048174 C293.597137,84.713423 290.118807,90.754823 288.570423,97.2628604 C286.416756,106.293495 289.533292,115.144237 289.664276,124.185741 C289.724146,129.171303 288.242585,134.611919 283.665755,137.22963 C278.929243,139.921802 272.714572,136.8113 268.871036,134.045619 C260.879608,128.309872 256.243249,118.484243 248.823261,111.986542 C235.754178,100.541567 218.968889,94.1567124 201.624738,94.2060718 C200.830119,94.1610387 200.018431,94.1679198 199.17137,94.2445736 C194.248531,94.6753936 194.541707,103.033894 199.50029,102.916732 C200.323426,102.905845 201.134308,102.928643 201.951608,102.933796 C204.493778,103.322734 206.097599,105.51715 207.215899,107.855386 C209.170078,111.957618 207.198467,115.901865 204.087576,118.676461 C196.187849,125.690053 183.932537,121.170054 176.00238,116.953468 C158.396294,107.59483 141.588599,97.5468897 123.222636,89.6054878 C115.682951,86.3397828 108.058388,83.2939995 100.368253,80.4241292 Z M305.05878,481.662148 C303.441605,482.432293 301.131356,482.971394 298.744098,482.971394 C291.312797,482.971394 286.923323,478.042468 286.923323,470.109977 C286.923323,461.753907 291.659334,456.863487 299.013628,456.863487 C301.439389,456.863487 303.441605,457.441096 304.866259,458.134226 L305.559334,456.093343 C304.866259,455.746778 302.902547,454.861111 299.013628,454.861111 C290.04216,454.861111 284.459057,461.060776 284.459057,470.109977 C284.459057,480.391409 290.927755,484.97377 298.051024,484.97377 C301.516398,484.97377 304.250193,484.28064 305.674846,483.58751 L305.05878,481.662148 Z M320.960996,455.323198 L318.49673,455.323198 L308.293129,484.550191 L310.718891,484.550191 L314.14576,474.538309 L325.196453,474.538309 L328.661827,484.550191 L331.164597,484.550191 L320.960996,455.323198 Z M314.761827,472.612947 L318.111688,463.024645 C318.727755,461.176298 319.228309,459.48198 319.61335,457.749154 L319.728863,457.749154 C320.152408,459.443472 320.614458,461.137791 321.269029,463.178674 L324.580386,472.612947 L314.761827,472.612947 Z M354.382602,481.662148 C352.765427,482.432293 350.455178,482.971394 348.067921,482.971394 C340.636619,482.971394 336.247145,478.042468 336.247145,470.109977 C336.247145,461.753907 340.983156,456.863487 348.33745,456.863487 C350.763211,456.863487 352.765427,457.441096 354.190081,458.134226 L354.883156,456.093343 C354.190081,455.746778 352.226369,454.861111 348.33745,454.861111 C339.365982,454.861111 333.782879,461.060776 333.782879,470.109977 C333.782879,480.391409 340.251577,484.97377 347.374846,484.97377 C350.84022,484.97377 353.574015,484.28064 354.998668,483.58751 L354.382602,481.662148 Z M379.833848,455.323198 L377.446591,455.323198 L377.446591,468.069093 L362.160441,468.069093 L362.160441,455.323198 L359.773184,455.323198 L359.773184,484.550191 L362.160441,484.550191 L362.160441,470.109977 L377.446591,470.109977 L377.446591,484.550191 L379.833848,484.550191 L379.833848,455.323198 Z M401.819721,482.547815 L389.113349,482.547815 L389.113349,470.186991 L400.472075,470.186991 L400.472075,468.184615 L389.113349,468.184615 L389.113349,457.325574 L401.16515,457.325574 L401.16515,455.323198 L386.726092,455.323198 L386.726092,484.550191 L401.819721,484.550191 L401.819721,482.547815 Z"></path>
	</g>
</svg>
