<svg style="width:1em; height:1em; vertical-align:middle;" viewBox="0 0 512 512" version="1.1" xmlns="http://www.w3.org/2000/svg">
	<g fill="currentColor" fill-rule="evenodd" transform="translate(42.000000, 8.000000)">
		<path d="M20.0228571,144.712941 C33.1429227,114.481261 50.948459,88.5855196 73.44,67.0249412 C95.931541,45.4643628 122.171279,28.9426457 152.16,17.4592941 C182.148721,5.97594258 214.01126,0.234352941 247.748571,0.234352941 C274.457276,0.234352941 298.237039,2.81220952 319.088571,7.968 C339.940104,13.1237905 357.862782,18.9825554 372.857143,25.5444706 C390.194372,33.0438022 405.188508,41.2460731 417.84,50.1515294 L344.04,180.217412 C336.54282,174.592913 328.342902,169.202849 319.44,164.047059 C311.474246,160.297393 301.985769,156.664959 290.974286,153.149647 C279.962802,149.634335 267.428642,147.876706 253.371429,147.876706 C238.845642,147.876706 225.491489,150.454562 213.308571,155.610353 C201.125653,160.766143 190.46576,167.796661 181.328571,176.702118 C172.191383,185.607574 165.04574,196.036176 159.891429,207.988235 C154.737117,219.940295 152.16,232.712403 152.16,246.304941 C152.16,259.89748 154.854259,272.669587 160.242857,284.621647 C165.631456,296.573707 173.011382,307.002308 182.382857,315.907765 C191.754333,324.813221 202.765651,331.843739 215.417143,336.999529 C228.068635,342.15532 241.891354,344.733176 256.885714,344.733176 C271.880075,344.733176 285.234227,342.858372 296.948571,339.108706 C308.662916,335.35904 318.502817,331.140729 326.468571,326.453647 C335.840047,321.297857 344.039965,315.204741 351.068571,308.174118 L424.868571,438.24 C412.21708,448.551581 397.222944,457.691254 379.885714,465.659294 C364.891354,472.221209 346.851534,478.314325 325.765714,483.938824 C304.679895,489.563322 280.548707,492.375529 253.371429,492.375529 C216.822674,492.375529 183.085869,486.399589 152.16,474.447529 C121.234131,462.49547 94.5258267,445.739402 72.0342857,424.178824 C49.5427447,402.618245 31.9714918,376.722504 19.32,346.490824 C6.66850817,316.259143 0.342857143,282.864183 0.342857143,246.304941 C0.342857143,208.808283 6.90279154,174.944622 20.0228571,144.712941 Z M359.028468,89.6757544 C354.193819,114.834352 318.727708,129.062286 289.622289,123.360582 C231.931191,112.058992 233.574912,78.3273265 119,114.402803 C189.843343,36.3809073 246.335162,20.870029 307.139305,32.2495407 C336.291795,37.7064142 363.868372,64.5142171 359.028468,89.6757544 Z"></path>
	</g>
</svg>
